<?xml version="1.0" encoding="UTF-8"?>
<svg width="127px" height="36px" viewBox="0 0 127 36" version="1.1" xmlns="http://www.w3.org/2000/svg" xmlns:xlink="http://www.w3.org/1999/xlink">
    <!-- Generator: Sketch 48.1 (47250) - http://www.bohemiancoding.com/sketch -->
    <title>logo</title>
    <desc>Created with Sketch.</desc>
    <defs></defs>
    <g id="02-GNB-02-login" stroke="none" stroke-width="1" fill="none" fill-rule="evenodd" transform="translate(-657.000000, -28.000000)">
        <g id="bars/Desktop/Navi-bar-default" fill="#0B5AA0">
            <g id="top" transform="translate(48.000000, 0.000000)">
                <g id="logo" transform="translate(609.000000, 28.000000)">
                    <path d="M25.8317734,34.9877103 C27.4784806,34.9877103 28.494317,33.5610681 28.494317,31.4142051 C28.494317,29.3156399 27.4784806,27.9128812 25.8317734,27.9128812 C24.161979,27.9128812 23.1810419,29.3156399 23.1810419,31.4142051 C23.1810419,33.5610681 24.161979,34.9877103 25.8317734,34.9877103 Z M25.8317734,26.9007507 C28.17915,26.9007507 29.6733744,28.6936069 29.6733744,31.4142051 C29.6733744,34.1942467 28.17915,35.9998408 25.8317734,35.9998408 C23.4843968,35.9998408 22.0132596,34.1942467 22.0132596,31.4142051 C22.0132596,28.6936069 23.4843968,26.9007507 25.8317734,26.9007507 Z M41.8502563,27.1073697 L41.8502563,33.0968256 C41.8502563,34.5972413 40.7168363,36 38.6738885,36 C36.5831555,36 35.4738966,34.5972413 35.4738966,33.0968256 L35.4857086,27.1073697 L36.5600683,27.1073697 L36.5600683,32.9869614 C36.5600683,33.7809557 37.0271812,34.9878695 38.6738885,34.9878695 C40.2620724,34.9878695 40.7871717,33.7809557 40.7871717,32.9869614 L40.7989838,27.1073697 L41.8502563,27.1073697 Z M53.8277292,28.1201371 L51.0717631,28.1201371 L51.0717631,35.7554328 L49.9861282,35.7554328 L49.9861282,28.1201371 L47.2414372,28.1201371 L47.2414372,27.1074758 L53.8277292,27.1074758 L53.8277292,28.1201371 Z M61.8383935,34.74309 C63.7873818,34.74309 64.6995943,33.2798264 64.6995943,31.4009895 C64.6995943,29.5837191 63.7873818,28.1199248 61.8383935,28.1199248 L60.332357,28.1199248 L60.332357,34.74309 L61.8383935,34.74309 Z M62.0493997,27.0955872 C64.4198634,27.0828493 65.8791886,28.9378026 65.8791886,31.4009895 C65.8791886,33.9384808 64.4198634,35.7313369 62.0493997,35.7313369 L59.2703463,35.7313369 L59.2703463,27.0955219 L62.0493997,27.0955872 Z M75.3340908,34.9877103 C76.9802611,34.9877103 77.9971713,33.5610681 77.9971713,31.4142051 C77.9971713,29.3156399 76.9802611,27.9128812 75.3340908,27.9128812 C73.6637595,27.9128812 72.6838962,29.3156399 72.6838962,31.4142051 C72.6838962,33.5610681 73.6637595,34.9877103 75.3340908,34.9877103 M75.3340908,26.9007507 C77.6803936,26.9007507 79.174618,28.6936069 79.174618,31.4142051 C79.174618,34.1942467 77.6803936,35.9998408 75.3340908,35.9998408 C72.9861773,35.9998408 71.5166508,34.1942467 71.5166508,31.4142051 C71.5166508,28.6936069 72.9861773,26.9007507 75.3340908,26.9007507 M88.6661375,34.9877103 C90.3123078,34.9877103 91.329218,33.5610681 91.329218,31.4142051 C91.329218,29.3156399 90.3123078,27.9128812 88.6661375,27.9128812 C86.9958062,27.9128812 86.0159429,29.3156399 86.0159429,31.4142051 C86.0159429,33.5610681 86.9958062,34.9877103 88.6661375,34.9877103 M88.6661375,26.9007507 C91.014051,26.9007507 92.5088123,28.6936069 92.5088123,31.4142051 C92.5088123,34.1942467 91.014051,35.9998408 88.6661375,35.9998408 C86.3187609,35.9998408 84.8486975,34.1942467 84.8486975,31.4142051 C84.8486975,28.6936069 86.3187609,26.9007507 88.6661375,26.9007507 M101.728494,31.1092391 C102.54621,31.1092391 103.420838,30.5843324 103.420838,29.5838783 C103.420838,28.5834242 102.640169,28.120084 101.810104,28.120084 L99.4278283,28.120084 L99.4278283,31.1092391 L101.728494,31.1092391 Z M104.986472,35.7553797 L103.656542,35.7553797 L101.261918,32.1457838 L99.4278283,32.1457838 L99.4278283,35.7314962 L98.3652807,35.7314962 L98.3652807,27.0957464 L101.740306,27.0957464 C103.340302,27.0957464 104.566607,28.0712554 104.566607,29.5838783 C104.566607,30.7801773 103.713992,31.6946507 102.523122,32.0242432 L104.986472,35.7553797 Z M9.07063471,8.67024821 L5.3691139e-05,0 L5.34446966,0 L10.9159992,5.35840022 L16.5245755,0 L17.4276605,0 L32.2206431,0 C33.6885588,0 34.9674818,0.928803524 35.4952657,2.27052656 L35.4952657,0 L39.2976721,0 L39.2976721,8.7801124 C39.2976721,9.48812606 39.861966,10.0841525 40.5014275,10.0841525 L47.2020816,10.0841525 C47.8415431,10.0841525 48.5185883,9.41382178 48.5185883,8.74455249 L48.5185883,0 L49.7239544,0 L54.4670296,0 L61.4678172,8.85600892 L61.4678172,0 L65.1558616,0 L65.1558616,2.82833942 C65.6831086,0.148077819 68.3929003,0 68.9577311,0 L78.5195861,0 C80.0626694,0 81.379713,0.893243618 81.7936717,2.67866936 C82.1689728,0.855029987 83.4124596,0 85.0296367,0 L95.2325638,0 C96.8121571,0 98.2424891,1.1177487 98.6564477,2.71476001 L98.6564477,0 L104.67952,0 L111.417758,8.89263031 L111.417758,0 L127,0 L127,2.94032659 L115.029024,2.94032659 L115.029024,5.24747454 L126.132888,5.24747454 L126.132888,7.9261439 L115.029024,7.9261439 L115.029024,10.4190526 L127,10.4190526 L127,13.3593791 L109.949305,13.3593791 L102.232278,3.19933008 L102.232278,13.3593791 L98.6564477,13.3593791 L98.6564477,10.6048133 C98.2795359,12.1307048 97.0000761,13.2457997 95.4961873,13.3593791 L84.9952743,13.3593791 C83.2975605,13.3593791 82.1689728,12.3541484 81.8312555,10.7157389 C81.7168934,12.3541484 80.4401181,13.3593791 78.708042,13.3593791 L68.7687383,13.3593791 C66.9265953,13.3593791 65.5698203,12.5032877 65.1558616,10.5310397 L65.1558616,13.3593791 L65.0044526,13.3593791 L60.263525,13.3593791 L52.283411,3.23807446 L52.283411,9.52580894 C52.283411,11.7968662 50.9658305,13.3593791 48.8579163,13.3593791 L38.8450558,13.3593791 C37.2643887,13.3593791 35.9843919,12.2055398 35.6074801,10.6419654 C35.2316422,12.5032877 33.4625191,13.3593791 31.7691006,13.3593791 L22.8096603,13.3593791 C20.7409407,13.3593791 18.745241,12.3169962 18.745241,9.78587393 L18.745241,5.84350103 L22.7355665,5.84350103 L22.7355665,8.67024821 C22.7355665,9.45044317 23.2987865,10.0841525 24.0144894,10.0841525 L30.6780967,10.0841525 C31.2799743,9.93395175 31.7691006,9.3750774 31.7691006,8.70633886 L31.7691006,4.65197879 C31.7691006,3.98164802 31.2799743,3.42383516 30.6780967,3.2752266 L18.4440338,3.2752266 L12.7978736,8.67024821 L12.7978736,13.3593791 L9.07063471,13.3593791 L9.07063471,8.67024821 Z M78.1813319,8.9303132 C78.1813319,9.63620388 77.8033463,10.0841525 77.0500596,10.0841525 L70.2753117,10.0841525 C69.4087367,10.0841525 68.9577311,9.3750774 68.9577311,8.67024821 L68.9577311,4.68806945 L68.9958518,4.68806945 C68.9958518,3.98164802 69.4473943,3.42383516 70.0868558,3.2752266 L78.6688474,3.2752266 L81.9064231,3.2752266 L86.5351362,3.2752266 L93.5745814,3.2752266 C94.328405,3.2752266 94.8545782,3.98164802 94.8545782,4.68806945 L94.8545782,8.67024821 C94.8545782,9.45044317 94.2913581,10.0841525 93.462367,10.0841525 L87.063457,10.0841525 C86.2725865,10.0841525 85.6331251,9.52580894 85.6331251,8.67024821 L85.6331251,5.50700878 L73.2487269,5.50700878 L73.2487269,8.18620889 L78.1813319,8.18620889 L78.1813319,8.9303132 Z M0,21.3323347 L0,19.5134721 L126.999946,19.5134721 L126.999946,21.3323347 L0,21.3323347 Z" id="logo-copy"></path>
                </g>
            </g>
        </g>
    </g>
</svg>